<svg>
  <symbol id="logo" width="167" height="36" viewBox="0 0 167 36" fill="none" xmlns="http://www.w3.org/2000/svg">
  <g clip-path="url(#clip0_46_43)">
  <path d="M0 25.1772L8.97712 11.7493H14.9023L8.02739 22.0169H16.9365L14.8169 25.1772H0Z" fill="#FF0000"/>
  <path d="M18.4064 25.1772L27.3849 11.7506H33.3087L24.3316 25.1786L18.4064 25.1772Z" fill="#FF0000"/>
  <path d="M33.7382 25.1772C33.3058 25.1782 32.8755 25.1172 32.4604 24.9962C32.0821 24.8973 31.7358 24.7029 31.4546 24.4318C31.198 24.1694 31.0544 23.8173 31.0544 23.4507C31.0384 23.0522 31.2194 22.5743 31.5973 22.0169L36.5714 14.5701C36.9556 13.9589 37.428 13.4076 37.9734 12.9341C38.3774 12.5899 38.8311 12.3085 39.3193 12.0994C39.7046 11.9368 40.1126 11.834 40.5291 11.7946C40.9053 11.7639 41.2454 11.7493 41.5469 11.7493H56.788L54.7525 14.5701H44.3281C43.6487 14.5701 43.1151 14.6567 42.7274 14.8297C42.3397 15.0028 41.984 15.3298 41.6603 15.8108L38.3802 20.7363C38.1241 21.1277 38.0676 21.4383 38.2108 21.6682C38.3549 21.9011 38.7044 22.0169 39.2633 22.0169H42.3832C43.1533 22.0169 43.7678 21.9229 44.2267 21.7347C44.7173 21.5203 45.1313 21.1624 45.4139 20.7084L46.2049 19.5356H42.9488L44.8029 16.74H53.9841L50.456 22.0209C50.0273 22.706 49.4976 23.3226 48.8847 23.85C48.4323 24.2275 47.93 24.541 47.392 24.7819C46.9627 24.9735 46.5041 25.0919 46.0355 25.132C45.6059 25.163 45.2178 25.1781 44.871 25.1772H33.7382Z" fill="#FF0000"/>
  <path d="M53.1638 25.1772L62.141 11.7493H68.0661L64.7194 16.736H71.729L75.0758 11.7493H81.0009L72.0225 25.1772H66.0986L69.8749 19.5356H62.8653L59.0877 25.1772H53.1638Z" fill="#FF0000"/>
  <path d="M82.1307 25.1772L89.2097 14.5701H82.2214L84.0982 11.7493H102.958L101.081 14.5701H95.1336L88.0559 25.1772H82.1307Z" fill="#FF0000"/>
  <path d="M97.4852 25.1772L106.464 11.7506H112.388L105.514 22.0183H114.423L112.298 25.1786L97.4852 25.1772Z" fill="#FF0000"/>
  <path d="M143.956 25.1772C143.524 25.1782 143.094 25.1172 142.679 24.9962C142.3 24.8973 141.954 24.7029 141.672 24.4318C141.415 24.1694 141.272 23.8173 141.272 23.4507C141.258 23.0522 141.439 22.5743 141.815 22.0169L146.79 14.5701C147.174 13.9586 147.646 13.4073 148.192 12.9341C148.595 12.5897 149.049 12.3082 149.537 12.0994C149.922 11.937 150.33 11.8342 150.746 11.7946C151.124 11.7644 151.464 11.7493 151.764 11.7493H167.007L164.971 14.5701H154.545C153.868 14.5701 153.334 14.6567 152.945 14.8297C152.555 15.0028 152.2 15.3298 151.878 15.8108L148.599 20.7363C148.343 21.1277 148.285 21.4405 148.429 21.6682C148.574 21.8958 148.923 22.0169 149.481 22.0169H152.601C153.37 22.0169 153.984 21.9229 154.444 21.7347C154.935 21.5207 155.349 21.1627 155.631 20.7084L156.424 19.5356H153.166L155.02 16.74H164.201L160.675 22.0209C160.245 22.7058 159.715 23.3223 159.102 23.85C158.65 24.2277 158.148 24.5412 157.611 24.7819C157.181 24.9737 156.722 25.0921 156.253 25.132C155.823 25.163 155.435 25.1781 155.088 25.1772H143.956Z" fill="#FF0000"/>
  <path d="M70.906 34.123H76.1762C76.3356 34.1321 76.4949 34.1062 76.6431 34.0471C76.6851 34.0306 76.7232 34.0056 76.755 33.9738C76.7869 33.942 76.8119 33.9039 76.8285 33.8621C76.84 33.8242 76.8434 33.7843 76.8383 33.7451C76.8333 33.7059 76.8199 33.6681 76.7992 33.6344C76.7528 33.5537 76.6867 33.4859 76.6071 33.4374L74.9664 32.3724C74.6249 32.1475 74.3221 31.9411 74.058 31.7508C73.8259 31.5894 73.6129 31.4023 73.4231 31.193C73.2767 31.0347 73.1709 30.8433 73.115 30.6352C73.0703 30.4233 73.0908 30.203 73.1736 30.0029C73.2492 29.7763 73.3836 29.5737 73.5631 29.4158C73.7453 29.2607 73.9547 29.1407 74.1807 29.0617C74.4394 28.9714 74.7082 28.9128 74.9811 28.8873C75.3002 28.8555 75.6208 28.8399 75.9415 28.8407H82.2975L81.3318 30.2931H77.1633C77.0592 30.2894 76.9557 30.3094 76.8605 30.3517C76.7932 30.3805 76.7381 30.4318 76.7045 30.4968C76.6919 30.526 76.6854 30.5575 76.6854 30.5893C76.6854 30.6211 76.6919 30.6526 76.7045 30.6818C76.7333 30.7545 76.7872 30.8144 76.8565 30.8509L78.4399 31.8959C78.9903 32.2446 79.386 32.5912 79.627 32.9355C79.7459 33.1074 79.8235 33.3043 79.8538 33.5109C79.8841 33.7175 79.8663 33.9283 79.8018 34.127C79.7344 34.3669 79.6237 34.5925 79.475 34.7926C79.3064 35.0076 79.0917 35.1823 78.8467 35.3038C78.5219 35.4649 78.1748 35.5766 77.8169 35.6352C77.3186 35.7191 76.8136 35.7579 76.3083 35.7511H69.8242L70.906 34.123Z" fill="white"/>
  <path d="M81.1503 34.2747H84.0849L83.0831 35.7497H80.1486L81.1503 34.2747Z" fill="white"/>
  <path d="M85.4468 35.7497L88.264 31.5324H93.1995C93.4144 31.5373 93.6288 31.5076 93.8344 31.4446C93.9976 31.3944 94.1388 31.2902 94.2346 31.149L94.4907 30.7497C94.6 30.5953 94.5934 30.4834 94.4733 30.4009C94.2994 30.3114 94.1042 30.2713 93.9091 30.2851H89.043L88.076 28.8327H96.2714C96.6468 28.8222 97.0217 28.8671 97.3839 28.9659C97.6014 29.0194 97.7979 29.1367 97.9481 29.3027C98.001 29.368 98.0393 29.4438 98.0605 29.525C98.0817 29.6063 98.0852 29.6912 98.0708 29.7739C98.0383 29.96 97.9645 30.1365 97.8548 30.2904L97.0051 31.5804C96.893 31.7457 96.7436 31.8825 96.5689 31.9797C96.382 32.0854 96.1826 32.1672 95.9753 32.2233C95.7567 32.2847 95.5337 32.3292 95.3083 32.3565C95.0802 32.3844 94.8642 32.4017 94.6627 32.4084C95.0629 32.4709 95.3297 32.5908 95.4898 32.7691C95.5651 32.8552 95.617 32.9593 95.6403 33.0712C95.6637 33.1831 95.6578 33.2991 95.6231 33.4081L95.0416 35.755H91.9909L92.7139 33.6051C92.745 33.5354 92.7579 33.459 92.7516 33.3829C92.7453 33.3068 92.72 33.2336 92.6779 33.1698C92.589 33.042 92.4222 32.9781 92.1777 32.9781H90.3382L88.4868 35.755L85.4468 35.7497Z" fill="white"/>
  <path d="M97.5653 34.2747H100.5L99.4981 35.7497H96.5635L97.5653 34.2747Z" fill="white"/>
  <path d="M104.004 35.7497C103.781 35.7503 103.559 35.7189 103.345 35.6565C103.15 35.6057 102.972 35.5057 102.828 35.3663C102.694 35.2313 102.619 35.0499 102.618 34.8605C102.61 34.6555 102.703 34.4096 102.897 34.123L105.459 30.2891C105.657 29.9741 105.9 29.6901 106.181 29.4464C106.389 29.2691 106.622 29.1241 106.873 29.0164C107.072 28.933 107.282 28.8801 107.496 28.8594C107.69 28.8447 107.864 28.8367 108.02 28.8367H113.584C113.959 28.8262 114.334 28.8711 114.697 28.9699C114.914 29.0234 115.111 29.1407 115.261 29.3067C115.314 29.372 115.352 29.4478 115.373 29.529C115.394 29.6103 115.398 29.6952 115.383 29.7779C115.351 29.964 115.277 30.1405 115.167 30.2944L112.606 34.1283C112.386 34.4807 112.113 34.798 111.798 35.0695C111.565 35.2647 111.307 35.4268 111.03 35.5514C110.809 35.6504 110.572 35.7112 110.331 35.7311C110.109 35.7471 109.909 35.755 109.732 35.755L104.004 35.7497ZM108.457 34.123C108.779 34.135 109.101 34.0858 109.405 33.9779C109.658 33.8662 109.871 33.6805 110.016 33.4454L111.705 30.9241C111.838 30.7231 111.85 30.566 111.745 30.4528C111.639 30.3397 111.463 30.2851 111.211 30.2851H109.453C109.171 30.2733 108.89 30.3186 108.626 30.4182C108.399 30.5308 108.209 30.7064 108.079 30.9241L106.392 33.4534C106.258 33.6544 106.23 33.8155 106.304 33.9353C106.377 34.0551 106.558 34.115 106.845 34.115L108.457 34.123Z" fill="white"/>
  <path d="M114.877 34.2747H117.811L116.809 35.7497H113.875L114.877 34.2747Z" fill="white"/>
  <path d="M133.219 11.6827C133.208 11.6827 133.183 11.6934 133.175 11.708C133.173 11.713 133.172 11.7184 133.173 11.7238C133.173 11.7292 133.175 11.7343 133.179 11.7386C133.182 11.743 133.186 11.7464 133.191 11.7485C133.196 11.7506 133.202 11.7513 133.207 11.7506C133.217 11.7496 133.227 11.7464 133.236 11.7414C133.244 11.7363 133.252 11.7295 133.258 11.7213C133.275 11.6947 133.25 11.6894 133.219 11.6827Z" fill="white"/>
  <path d="M129.188 18.3801L117.163 20.0853L131.273 0L124.832 16.2022L138.094 14.2972L134.63 18.5917L129.188 18.3801Z" fill="#FF0000"/>
  <path d="M130.617 11.491L130.605 11.4737C130.574 11.4378 130.547 11.3979 130.518 11.3592C130.527 11.117 130.583 11.0384 130.791 10.9745C130.828 10.9645 130.864 10.9516 130.898 10.9359C130.933 10.9186 131.002 10.9173 130.983 10.8627C130.978 10.8503 130.971 10.8393 130.961 10.8303C130.951 10.8213 130.939 10.8147 130.926 10.8109C130.914 10.807 130.9 10.8061 130.887 10.8082C130.874 10.8102 130.861 10.8152 130.85 10.8228C130.711 10.9225 130.55 10.9885 130.38 11.0158C130.247 11.0557 130.247 11.1769 130.27 11.294C130.266 11.3083 130.261 11.3222 130.254 11.3353C130.254 11.3832 130.219 11.4005 130.132 11.4152C130.132 11.4192 130.13 11.423 130.127 11.4262C130.125 11.4294 130.121 11.432 130.118 11.4338C130.069 11.448 130.024 11.4722 129.985 11.5047C129.946 11.5372 129.914 11.5774 129.891 11.6228C129.878 11.652 129.857 11.6769 129.83 11.6944C129.803 11.7118 129.772 11.7212 129.74 11.7213C129.655 11.7213 129.571 11.7266 129.487 11.7373C129.391 11.748 129.353 11.704 129.383 11.6135C129.379 11.6143 129.375 11.6142 129.371 11.613C129.367 11.6118 129.364 11.6097 129.361 11.6069C129.36 11.6117 129.357 11.6162 129.354 11.6199C129.35 11.6236 129.346 11.6264 129.341 11.6281L129.352 11.6415C129.352 11.6787 129.295 11.7173 129.328 11.7533C129.342 11.7549 129.355 11.7585 129.368 11.7639C129.388 11.9104 129.501 11.9064 129.605 11.9064C129.661 11.8988 129.718 11.9027 129.772 11.9178C129.826 11.9329 129.877 11.9589 129.92 11.9942C129.939 12.0084 129.962 12.018 129.985 12.0224C130.008 12.0268 130.033 12.0258 130.056 12.0195C130.079 12.0133 130.1 12.0018 130.118 11.9862C130.136 11.9705 130.15 11.9509 130.159 11.929C130.274 11.704 130.36 11.6801 130.573 11.8198C130.594 11.7107 130.553 11.5536 130.734 11.5656C130.697 11.5376 130.631 11.543 130.617 11.491ZM130.038 11.6734C130.034 11.6737 130.03 11.6728 130.026 11.671C130.022 11.6692 130.019 11.6664 130.017 11.663C130.015 11.6596 130.014 11.6557 130.014 11.6517C130.014 11.6477 130.014 11.6437 130.016 11.6401C130.036 11.5962 130.068 11.5749 130.134 11.6082C130.102 11.6375 130.091 11.6787 130.038 11.6734ZM130.457 11.708C130.426 11.6974 130.413 11.6694 130.434 11.6494C130.46 11.6199 130.495 11.6005 130.534 11.5949C130.571 11.5949 130.563 11.6534 130.558 11.6734C130.546 11.7227 130.494 11.704 130.457 11.708Z" fill="white"/>
  <path d="M133.41 15.8122C133.4 15.8028 133.41 15.719 133.359 15.679C133.343 15.6631 133.359 15.6045 133.37 15.5739C133.38 15.5433 133.418 15.5739 133.442 15.5845C133.502 15.6178 133.544 15.6058 133.558 15.5339C133.466 15.293 133.466 15.293 133.335 15.4008C133.315 15.3289 133.388 15.2371 133.326 15.1892C133.242 15.1201 133.182 15.0272 133.152 14.9229C133.143 14.9063 133.139 14.8873 133.142 14.8684C133.144 14.8496 133.152 14.8319 133.164 14.8177C133.196 14.7618 133.192 14.674 133.298 14.7113C133.374 14.7392 133.39 14.69 133.404 14.634C133.419 14.5781 133.448 14.4783 133.38 14.4623C133.288 14.441 133.202 14.3558 133.091 14.4197C133.008 14.4676 132.914 14.4956 132.824 14.5395C132.735 14.5835 132.609 14.6474 132.705 14.7965C132.721 14.8249 132.73 14.857 132.729 14.8896C132.729 15.1466 132.902 15.3263 132.996 15.5406C132.939 15.5873 132.892 15.6461 132.861 15.7129C132.829 15.7797 132.812 15.8527 132.812 15.9266C132.812 15.9535 132.82 15.9797 132.836 16.0012C133.015 16.1503 133.162 16.3766 133.462 16.2541C133.411 16.1277 133.552 15.9573 133.41 15.8122Z" fill="white"/>
  <path d="M127.963 22.3378C128.058 22.3111 128.106 22.4017 128.186 22.403C128.217 22.403 128.26 22.423 128.269 22.3883C128.313 22.2299 128.461 22.1953 128.573 22.1141C128.546 22.0875 128.508 22.0729 128.485 22.0236C128.438 21.967 128.37 21.9311 128.297 21.9234C128.223 21.9157 128.15 21.9368 128.092 21.9823C128.03 22.0677 127.978 22.1591 127.935 22.2552C127.921 22.2832 127.917 22.3511 127.963 22.3378Z" fill="white"/>
  <path d="M127.383 23.1125C127.358 23.014 127.442 22.8955 127.329 22.8117C127.329 22.8117 127.338 22.7744 127.347 22.7558C127.395 22.6451 127.417 22.5247 127.41 22.4043V22.3098H127.387L127.309 22.5055C127.286 22.624 127.191 22.7345 127.242 22.8583C127.276 22.9504 127.304 23.0447 127.326 23.1405C127.293 23.1818 127.297 23.2177 127.342 23.2443C127.353 23.251 127.379 23.2536 127.382 23.2443C127.394 23.2244 127.4 23.2017 127.4 23.1786C127.4 23.1555 127.395 23.1327 127.383 23.1125Z" fill="white"/>
  <path d="M127.887 23.6676C127.887 23.637 127.887 23.5771 127.837 23.5838C127.786 23.5904 127.774 23.6343 127.806 23.6809L127.785 23.7861C127.775 23.8056 127.771 23.8271 127.773 23.8487L127.746 23.8953C127.625 23.9765 127.651 24.0989 127.657 24.2148C127.657 24.2494 127.587 24.2906 127.665 24.3133C127.682 24.3133 127.714 24.3931 127.733 24.3133C127.719 24.26 127.72 24.2043 127.734 24.1512C127.748 24.0981 127.775 24.0495 127.813 24.0097C127.835 23.9876 127.85 23.9596 127.856 23.9292C127.862 23.8987 127.86 23.8671 127.849 23.838C127.866 23.7823 127.879 23.7253 127.887 23.6676Z" fill="white"/>
  <path d="M138.422 21.2078C138.736 20.024 138.85 18.7962 138.761 17.5749C138.663 16.2548 138.337 14.9616 137.796 13.753C137.334 12.705 136.714 11.7339 135.957 10.8736C134.949 9.7008 133.696 8.76213 132.286 8.12327C131.572 7.79152 130.83 7.52421 130.069 7.32454C128.611 6.9664 127.096 6.90393 125.614 7.14083C124.341 7.3431 123.113 7.75995 121.98 8.37354C120.222 9.31263 118.745 10.7004 117.7 12.3951C117.52 12.6827 117.385 12.9942 117.213 13.2857L117.151 13.4348C117.187 13.4574 117.166 13.4814 117.151 13.504C117.145 13.524 117.137 13.544 117.129 13.5639L117.091 13.6531C117.091 13.6811 117.074 13.7037 117.041 13.705L116.701 14.545C116.71 14.5547 116.715 14.5676 116.715 14.581C116.715 14.5944 116.71 14.6073 116.701 14.6169L116.665 14.7074C116.65 14.7367 116.665 14.7887 116.603 14.7847L116.543 14.9351C116.51 15.0856 116.466 15.2334 116.41 15.377C116.185 16.1923 116.052 17.0299 116.012 17.8744C115.942 19.3653 116.173 20.8551 116.69 22.2554C117.172 23.5875 117.901 24.8171 118.839 25.8803C119.541 26.6725 120.349 27.3645 121.24 27.937C121.588 28.162 121.957 28.3471 122.324 28.5388L122.444 28.588C122.467 28.5507 122.49 28.572 122.514 28.588L122.574 28.612C122.602 28.612 122.627 28.6253 122.624 28.6612L122.805 28.7344C122.844 28.7233 122.886 28.7256 122.925 28.741C122.963 28.7564 122.995 28.7841 123.015 28.8196L123.255 28.9168C123.289 28.9043 123.326 28.9047 123.359 28.918C123.393 28.9313 123.42 28.9565 123.435 28.9887L123.646 29.0739C123.67 29.0473 123.694 29.0579 123.718 29.0739L123.778 29.0979C123.805 29.1045 123.837 29.1045 123.826 29.1471L123.886 29.1711C124.062 29.2044 124.221 29.2882 124.391 29.3335C126.075 29.797 127.844 29.8644 129.559 29.5305C130.712 29.3055 131.823 28.904 132.853 28.3404C134.089 27.6777 135.187 26.7848 136.086 25.7099C136.73 24.966 137.261 24.1323 137.663 23.2352C137.967 22.5797 138.221 21.9019 138.422 21.2078ZM118.515 12.262C118.523 12.254 118.535 12.2497 118.547 12.25C118.567 12.25 118.567 12.2673 118.559 12.2873C118.551 12.3073 118.537 12.3019 118.525 12.3006C118.52 12.3019 118.515 12.301 118.51 12.2983C118.506 12.2955 118.503 12.2911 118.501 12.286C118.5 12.2808 118.501 12.2755 118.504 12.271C118.506 12.2665 118.511 12.2632 118.516 12.262H118.515ZM116.914 19.786C116.842 19.7993 116.855 19.6675 116.766 19.7048C116.677 19.7421 116.707 19.8126 116.681 19.8659C116.701 19.9129 116.706 19.9651 116.694 20.015C116.717 20.0785 116.723 20.1467 116.713 20.2133C116.687 20.185 116.668 20.1514 116.657 20.1147C116.646 20.0781 116.643 20.0395 116.649 20.0017C116.638 19.9852 116.631 19.9665 116.628 19.9469C116.625 19.9273 116.627 19.9074 116.633 19.8885C116.421 18.4761 116.499 17.0356 116.861 15.6539C117.084 14.7921 117.415 13.9616 117.845 13.1819C117.873 13.095 117.918 13.0149 117.978 12.9463C117.978 12.9418 117.979 12.9373 117.981 12.9336C117.984 12.9299 117.987 12.9272 117.992 12.9263L118.069 12.7572C118.069 12.692 118.116 12.6547 118.184 12.6241C118.181 12.8025 118.113 12.9736 117.992 13.1047L117.938 13.1553L117.914 13.2112C117.902 13.2685 117.885 13.325 117.865 13.3802C117.749 13.5977 117.691 13.8409 117.696 14.0871C117.701 14.2976 117.653 14.5059 117.556 14.6928C117.49 14.8352 117.494 14.999 117.41 15.1334C117.392 15.2093 117.374 15.2852 117.357 15.3611L117.366 15.4942L117.345 15.5594C117.423 15.6995 117.445 15.8643 117.406 16.02C117.396 16.1586 117.435 16.2963 117.517 16.4087C117.588 16.5579 117.628 16.7202 117.633 16.8853C117.634 17.0139 117.666 17.1404 117.726 17.2541C117.794 17.3645 117.726 17.495 117.708 17.6148C117.676 17.8212 117.573 18.0098 117.416 18.1473C117.338 18.214 117.274 18.2954 117.229 18.3868C117.183 18.4782 117.156 18.5778 117.149 18.6798C117.141 19.0326 117.029 19.372 116.957 19.7168C116.949 19.7421 116.936 19.7656 116.919 19.786H116.914ZM138.132 19.1124C138.132 19.1124 138.124 19.1497 138.119 19.1697C138.125 19.2605 138.11 19.3515 138.076 19.4359C138.007 19.356 138.064 19.2855 138.066 19.2163C138.071 19.1913 138.078 19.1668 138.087 19.1431C138.102 19.1297 138.099 19.0871 138.138 19.1124H138.132ZM133.509 9.56896C133.545 9.60224 133.6 9.61955 133.621 9.69144C133.54 9.70209 133.502 9.67013 133.488 9.59825C133.471 9.58476 133.458 9.56743 133.449 9.54773C133.441 9.52802 133.437 9.50654 133.438 9.4851C133.521 9.47179 133.516 9.52237 133.514 9.56896H133.509ZM132.842 9.75134L133.084 9.84452C133.118 9.85517 133.161 9.85517 133.16 9.90709C133.16 9.91508 133.148 9.92972 133.142 9.92972C133.126 9.92922 133.111 9.92385 133.098 9.91434C133.085 9.90482 133.075 9.89161 133.07 9.87648C133.026 9.88553 132.98 9.88385 132.937 9.87157C132.893 9.85929 132.854 9.83678 132.821 9.80592C132.779 9.79633 132.741 9.77695 132.708 9.74938C132.676 9.72182 132.65 9.68689 132.634 9.64751C132.743 9.6302 132.775 9.72738 132.846 9.75134H132.842ZM132.51 9.84586C132.51 9.8392 132.539 9.84586 132.551 9.84586C132.563 9.84586 132.571 9.8645 132.594 9.88446C132.549 9.88446 132.533 9.89378 132.521 9.88446C132.509 9.87514 132.495 9.86316 132.514 9.84586H132.51ZM132.547 10.1707C132.561 10.1698 132.574 10.1735 132.585 10.1813C132.597 10.189 132.605 10.2003 132.609 10.2133C132.611 10.2229 132.612 10.233 132.609 10.2427C132.607 10.2524 132.603 10.2615 132.597 10.2692C132.554 10.2927 132.509 10.3132 132.463 10.3304L132.35 10.5967C132.315 10.7298 132.413 10.791 132.483 10.8629C132.514 10.8775 132.542 10.9188 132.495 10.9162C132.426 10.9162 132.333 10.9055 132.321 10.799C132.2 10.7777 132.159 10.7151 132.203 10.5967C132.219 10.5422 132.231 10.4866 132.239 10.4303C132.258 10.3599 132.298 10.2971 132.354 10.2506C132.411 10.2041 132.48 10.1762 132.553 10.1707H132.547ZM132.187 11.0506C132.176 11.0719 132.155 11.0746 132.124 11.0639C132.113 11.0592 132.104 11.0503 132.1 11.0391C132.095 11.0279 132.095 11.0153 132.099 11.004C132.108 10.9787 132.134 10.984 132.152 10.9934C132.171 11.0027 132.21 11.0147 132.191 11.0519L132.187 11.0506ZM132.002 9.67014C132.039 9.67014 132.09 9.63819 132.111 9.6941C132.132 9.75001 132.082 9.7327 132.062 9.73536C132.014 9.73536 131.955 9.79926 131.928 9.70475C131.928 9.68079 131.886 9.66215 131.891 9.62221C131.952 9.59958 131.962 9.66747 132.006 9.67014H132.002ZM131.647 9.61556C131.674 9.57296 131.71 9.61556 131.742 9.61556C131.774 9.61556 131.811 9.63419 131.786 9.67147C131.781 9.68107 131.774 9.68918 131.765 9.69486C131.756 9.70055 131.746 9.70357 131.735 9.70357C131.724 9.70357 131.714 9.70055 131.705 9.69486C131.696 9.68918 131.689 9.68107 131.684 9.67147C131.668 9.65549 131.632 9.64484 131.651 9.61556H131.647ZM130.58 9.32136C130.622 9.29473 130.66 9.32136 130.68 9.36529C130.7 9.40922 130.749 9.37194 130.779 9.39591C130.804 9.37993 130.828 9.3573 130.864 9.37061C130.888 9.37954 130.912 9.39068 130.935 9.40389C130.985 9.43584 131.111 9.41987 131.068 9.51172C131.025 9.60357 130.947 9.51971 130.888 9.48111L130.851 9.49841C130.851 9.50879 130.848 9.5191 130.843 9.5277C130.848 9.5294 130.853 9.53163 130.857 9.53435C130.889 9.57429 130.935 9.6089 130.913 9.66747C130.913 9.67546 130.871 9.67946 130.857 9.66747C130.797 9.63419 130.807 9.58228 130.828 9.53435C130.769 9.51705 130.732 9.56897 130.683 9.58095C130.633 9.59293 130.596 9.63952 130.549 9.5876C130.502 9.53568 130.558 9.51039 130.572 9.47312C130.572 9.4638 130.561 9.44782 130.554 9.43451C130.549 9.42513 130.545 9.41471 130.544 9.40386C130.542 9.39302 130.543 9.38198 130.546 9.37141C130.548 9.36083 130.553 9.35095 130.56 9.34235C130.567 9.33375 130.576 9.32661 130.585 9.32136H130.58ZM126.578 7.63338C126.635 7.64004 126.603 7.67731 126.599 7.70127C126.595 7.72523 126.57 7.76917 126.531 7.75452C126.493 7.73988 126.482 7.68663 126.495 7.64802C126.509 7.60942 126.562 7.63072 126.59 7.63338H126.578ZM125.731 7.63338C125.702 7.67997 125.666 7.67065 125.608 7.64936C125.672 7.61474 125.704 7.60409 125.75 7.62806L125.731 7.63338ZM122.13 8.88738C122.191 8.79153 122.191 8.79154 122.315 8.7942C122.27 8.84389 122.207 8.87516 122.14 8.88206L122.13 8.88738ZM120.449 14.589C120.447 14.5923 120.445 14.5952 120.441 14.5972C120.438 14.5992 120.435 14.6002 120.431 14.6002C120.427 14.6002 120.423 14.5992 120.42 14.5972C120.417 14.5952 120.414 14.5923 120.413 14.589C120.41 14.5823 120.408 14.575 120.408 14.5677C120.408 14.5603 120.41 14.5531 120.413 14.5464C120.413 14.5371 120.438 14.5371 120.449 14.5331C120.456 14.539 120.461 14.5473 120.463 14.5565C120.465 14.5657 120.464 14.5753 120.46 14.5836L120.449 14.589ZM123.181 8.82349C123.163 8.86875 123.143 8.91267 123.081 8.88738C122.969 8.8967 122.878 8.80884 122.763 8.82082C122.839 8.75559 122.917 8.70368 123.019 8.7516C123.043 8.71299 123.019 8.69036 122.991 8.67173C122.93 8.65115 122.865 8.64538 122.801 8.65486C122.737 8.66435 122.676 8.68883 122.623 8.72631C122.601 8.74131 122.576 8.75072 122.549 8.75374C122.523 8.75676 122.496 8.75328 122.471 8.74361C122.454 8.76024 122.432 8.77138 122.408 8.77564C122.384 8.7799 122.36 8.77709 122.338 8.76757C122.351 8.74769 122.369 8.73115 122.39 8.71916C122.411 8.70718 122.435 8.70007 122.459 8.69835C123.057 8.39409 123.682 8.14586 124.326 7.95687C124.387 7.93823 124.445 7.91426 124.504 7.89297C124.586 7.86066 124.674 7.84527 124.763 7.8477C124.779 7.82896 124.8 7.81505 124.823 7.80753C124.847 7.80001 124.872 7.79917 124.896 7.8051C124.965 7.77 125.041 7.75218 125.117 7.75319C125.136 7.73398 125.161 7.72227 125.187 7.72031C125.214 7.71834 125.24 7.72626 125.262 7.74254C125.363 7.68663 125.328 7.81176 125.376 7.82907C125.676 7.75053 125.989 7.7665 126.291 7.71592C126.314 7.64802 126.371 7.63205 126.417 7.66932C126.462 7.7066 126.417 7.74787 126.381 7.77449C126.345 7.80111 126.323 7.81176 126.373 7.83972L126.593 7.81975C126.634 7.79845 126.691 7.79579 126.704 7.73455C126.635 7.59477 126.737 7.62939 126.808 7.63338C126.778 7.5189 126.82 7.47896 126.933 7.51224H127.032C127.298 7.51224 127.573 7.51224 127.844 7.51224C127.908 7.50892 127.971 7.52569 128.024 7.56017C128.047 7.53487 128.069 7.50824 128.109 7.52156C128.243 7.47629 128.352 7.54685 128.474 7.56416C128.501 7.55341 128.531 7.55084 128.561 7.55674C128.59 7.56264 128.616 7.57677 128.638 7.59744L128.699 7.62007C128.708 7.61809 128.718 7.61809 128.727 7.62007C128.727 7.60942 128.727 7.60276 128.74 7.60143C128.818 7.58032 128.9 7.58788 128.972 7.62273C129.018 7.60542 129.06 7.62273 129.106 7.63604C129.142 7.61741 129.174 7.63604 129.209 7.64669C129.27 7.62539 129.319 7.66533 129.374 7.6813C129.438 7.65068 129.483 7.69462 129.535 7.71725L129.591 7.7279C129.694 7.7241 129.796 7.74226 129.89 7.78114C129.96 7.75851 129.946 7.82641 129.97 7.85436C129.994 7.88232 130.041 7.87033 130.042 7.90095C130.044 7.93157 130 7.95021 129.964 7.95553L129.921 7.97683C129.893 8.05404 130.009 8.06869 129.993 8.14057C129.977 8.21246 130.097 8.2484 130.041 8.30831C129.985 8.36821 129.893 8.34957 129.815 8.32162L129.807 8.34026C129.892 8.52396 130.126 8.50932 130.233 8.66374C130.246 8.74894 130.2 8.76491 130.129 8.75293C130.129 8.81683 130.226 8.80085 130.218 8.86741C130.164 8.95128 130.106 8.86741 130.052 8.86741C129.917 8.84214 129.78 8.8301 129.643 8.83147C129.589 8.83147 129.53 8.81816 129.49 8.85809C129.45 8.89803 129.406 8.93797 129.347 8.87407C129.343 8.869 129.337 8.86493 129.331 8.86215C129.325 8.85936 129.319 8.85792 129.312 8.85792C129.305 8.85792 129.299 8.85936 129.292 8.86215C129.286 8.86493 129.281 8.869 129.277 8.87407C129.134 9.03914 128.948 8.95395 128.782 8.94862C128.723 8.94862 128.626 9.04713 128.59 8.91135C128.551 8.922 128.551 8.96193 128.53 8.98722C128.504 9.0237 128.467 9.05066 128.424 9.0639C128.381 9.07715 128.335 9.07593 128.294 9.06044C128.233 9.12434 128.173 9.09772 128.113 9.06044C127.881 9.04713 127.704 8.86741 127.48 8.84611C127.297 8.82881 127.118 8.82881 126.961 8.71299C126.908 8.68876 126.849 8.68222 126.793 8.69436C126.497 8.71832 126.201 8.74627 125.904 8.77556C125.878 8.77556 125.848 8.79154 125.832 8.76491C125.816 8.73829 125.856 8.71566 125.871 8.69169C126.033 8.40149 126.346 8.4148 126.606 8.32561C126.746 8.27441 126.894 8.24741 127.044 8.24574C127.18 8.2271 127.319 8.2474 127.444 8.30431C127.456 8.29551 127.471 8.28993 127.486 8.28807C127.501 8.28621 127.516 8.28813 127.531 8.29366C127.545 8.29357 127.56 8.29039 127.573 8.28434C127.597 8.26571 127.573 8.25905 127.563 8.26304C127.516 8.29233 127.485 8.2697 127.452 8.23109C127.519 8.18184 127.585 8.16853 127.643 8.23109C127.643 8.22721 127.644 8.22349 127.647 8.22074C127.65 8.21799 127.653 8.21645 127.657 8.21645C127.72 8.14856 127.719 8.23376 127.745 8.25239H127.776C127.776 8.17652 127.825 8.1632 127.889 8.17119C128.134 8.19717 128.38 8.19717 128.624 8.17119C128.671 8.17119 128.73 8.17119 128.75 8.082C128.77 7.99281 128.872 8.09132 128.93 8.05138C128.991 8.14856 129.074 8.0607 129.145 8.07534L129.163 8.02742L128.96 7.9369L128.884 7.87433C128.803 7.94355 128.723 7.89297 128.64 7.88098C128.64 7.81309 128.722 7.82641 128.738 7.77982L128.62 7.73056L128.59 7.71991L128.528 7.68929C128.494 7.68929 128.46 7.65468 128.427 7.68929C128.474 7.70526 128.522 7.72923 128.527 7.78114C128.527 7.81176 128.486 7.81842 128.452 7.8051C128.442 7.8304 128.431 7.85702 128.395 7.8517C128.359 7.84637 128.275 7.92225 128.272 7.80644C128.18 7.85238 128.076 7.86954 127.973 7.85569C127.843 7.91218 127.701 7.93595 127.56 7.92492C127.378 7.90881 127.194 7.93856 127.026 8.01145C126.913 8.04166 126.792 8.03418 126.683 7.99015C126.717 7.94755 126.758 7.96885 126.79 7.96086L126.772 7.9156C126.638 7.92758 126.53 8.00079 126.398 7.98482C126.373 7.99425 126.345 7.99372 126.32 7.98332C126.295 7.97293 126.276 7.95346 126.265 7.92891C126.179 7.96485 126.203 7.85569 126.157 7.83972H126.142C125.934 7.92225 125.704 7.91826 125.492 7.99015C125.459 8.0008 125.447 8.00212 125.468 8.03407C125.49 8.06602 125.572 8.03407 125.578 8.09265C125.578 8.11794 125.539 8.1206 125.511 8.11528C125.351 8.17474 125.187 8.22409 125.02 8.26304C124.887 8.3025 124.767 8.37486 124.669 8.47338L124.581 8.50133C124.507 8.5552 124.426 8.59989 124.341 8.63445C124.177 8.7303 124.054 8.56789 123.905 8.59452C123.877 8.59452 123.87 8.54526 123.884 8.51464C123.988 8.30298 123.83 8.36155 123.726 8.36288C123.726 8.39217 123.772 8.41081 123.754 8.44675C123.792 8.46139 123.825 8.47737 123.786 8.52529C123.748 8.57322 123.696 8.56656 123.653 8.52529C123.528 8.52434 123.406 8.562 123.303 8.63312C123.249 8.69968 123.266 8.78887 123.191 8.81816L123.181 8.82349ZM128.092 10.5674C128.073 10.5644 128.053 10.56 128.035 10.5541C128.079 10.5141 128.121 10.5075 128.136 10.5328C128.181 10.586 128.127 10.5621 128.103 10.5621L128.092 10.5674ZM127.145 11.7162C126.96 11.6259 126.769 11.5493 126.573 11.4872C126.539 11.4979 126.483 11.5139 126.485 11.4699C126.486 11.426 126.545 11.4367 126.583 11.446C126.654 11.4172 126.733 11.4148 126.805 11.4393C126.821 11.3634 126.741 11.3488 126.722 11.2836C126.808 11.2703 126.918 11.3115 126.945 11.1757C126.953 11.1358 126.993 11.1757 127.018 11.1957C127.094 11.237 127.142 11.2077 127.17 11.1318C127.169 11.128 127.168 11.1239 127.168 11.1198C127.168 11.1157 127.169 11.1116 127.17 11.1078C127.164 11.0734 127.147 11.0419 127.122 11.0179C127.096 10.9939 127.064 10.9788 127.029 10.9747C126.94 10.9851 126.858 11.0277 126.798 11.0945C126.745 11.1691 126.379 11.1571 126.318 11.0945C126.257 11.032 126.285 10.9947 126.358 10.9814C126.431 10.9681 126.529 10.9614 126.557 10.8483C126.561 10.8342 126.569 10.8214 126.58 10.8112C126.59 10.801 126.603 10.7936 126.618 10.7899C126.632 10.7862 126.647 10.7861 126.661 10.7898C126.676 10.7935 126.689 10.8008 126.699 10.811C126.722 10.8323 126.76 10.8562 126.786 10.8283C126.882 10.7298 126.96 10.8163 127.044 10.8469L127.093 10.827L127.24 10.7138L127.284 10.6992C127.282 10.689 127.282 10.6787 127.284 10.6685L127.269 10.6259C127.241 10.6259 127.194 10.6459 127.193 10.598C127.192 10.5501 127.233 10.5554 127.266 10.5527C127.283 10.5449 127.301 10.5407 127.319 10.5401C127.338 10.5396 127.356 10.5429 127.373 10.5498C127.39 10.5567 127.406 10.567 127.418 10.5801C127.431 10.5932 127.441 10.6088 127.448 10.6259L127.535 10.5993C127.623 10.5501 127.693 10.6606 127.816 10.5913C127.776 10.6468 127.721 10.6894 127.657 10.7138L127.633 10.7697C127.704 10.8136 127.699 10.8629 127.619 10.8669C127.384 10.8802 127.464 11.0799 127.426 11.1984C127.418 11.2583 127.405 11.3175 127.388 11.3754C127.376 11.4034 127.356 11.4513 127.368 11.4619C127.523 11.6177 127.368 11.6124 127.278 11.6363C127.273 11.6896 127.261 11.7695 127.156 11.7175L127.145 11.7162ZM127.401 9.27077C127.414 9.24548 127.428 9.22152 127.462 9.22817L127.516 9.24548C127.56 9.20554 127.612 9.2335 127.649 9.24548C127.687 9.25746 127.689 9.30805 127.627 9.31337C127.712 9.36396 127.797 9.41587 127.884 9.46513C127.913 9.4811 127.972 9.45847 127.972 9.51305C127.974 9.53784 127.97 9.56273 127.961 9.58581C127.952 9.60889 127.937 9.62954 127.919 9.64618C127.807 9.73404 127.372 9.59026 127.328 9.45315C127.306 9.44117 127.269 9.4385 127.285 9.40256C127.301 9.36662 127.332 9.39058 127.356 9.38659C127.373 9.33999 127.329 9.27476 127.412 9.26545L127.401 9.27077ZM122.89 13.7836C122.869 13.7867 122.847 13.7867 122.826 13.7836C122.857 13.7343 122.897 13.7024 122.922 13.721C122.947 13.7397 122.929 13.7676 122.901 13.7783L122.89 13.7836ZM122.574 13.6212C122.527 13.6145 122.511 13.5772 122.495 13.5373C122.556 13.5147 122.586 13.5373 122.603 13.5799C122.604 13.5835 122.605 13.5873 122.605 13.5911C122.604 13.5948 122.603 13.5985 122.601 13.6019C122.6 13.6052 122.597 13.6082 122.594 13.6106C122.591 13.613 122.588 13.6148 122.584 13.6159L122.574 13.6212ZM123.058 11.41C122.994 11.3994 122.933 11.4327 122.906 11.3621C122.906 11.3501 122.906 11.3222 122.917 11.3208C122.991 11.2969 123.023 11.3408 123.069 11.4047L123.058 11.41ZM123.513 9.02583C123.505 9.03974 123.496 9.0527 123.485 9.06444C123.414 9.12434 123.341 9.11901 123.303 9.03781C123.266 8.95661 123.397 9.00986 123.403 8.94862C123.382 8.83414 123.414 8.7689 123.545 8.77023C123.618 8.76571 123.691 8.75593 123.762 8.74095C123.787 8.724 123.816 8.71571 123.846 8.7174C123.876 8.71909 123.904 8.73066 123.926 8.75027L123.742 8.82349C123.758 8.97791 123.616 8.97125 123.523 9.0205L123.513 9.02583ZM125.35 28.1048C125.345 28.1019 125.341 28.098 125.339 28.0933C125.336 28.0887 125.335 28.0835 125.335 28.0782C125.335 28.0542 125.354 28.0542 125.368 28.0635C125.383 28.0728 125.384 28.0848 125.4 28.1061C125.38 28.1061 125.366 28.1101 125.35 28.1048ZM129.547 25.3838C129.509 25.3838 129.459 25.2893 129.434 25.4091C129.409 25.5289 129.278 25.6101 129.19 25.6939C128.932 25.9376 128.656 26.1612 128.38 26.3862C128.304 26.4354 128.216 26.4617 128.125 26.4617C128.035 26.4617 127.946 26.4354 127.871 26.3862C127.855 26.3757 127.842 26.3622 127.832 26.3463C127.822 26.3305 127.816 26.3128 127.813 26.2943C127.816 26.2049 127.839 26.1172 127.881 26.0383C127.924 25.9595 127.984 25.8917 128.057 25.8404C128.134 25.8145 128.201 25.7674 128.251 25.7047C128.302 25.6419 128.333 25.5662 128.342 25.4863C128.357 25.4055 128.402 25.3332 128.467 25.2828C128.533 25.2324 128.614 25.2073 128.696 25.2121C128.808 25.2246 128.922 25.2148 129.03 25.1833C129.138 25.1517 129.238 25.0991 129.326 25.0283C129.398 24.9644 129.53 24.9525 129.602 24.8526C129.614 24.8353 129.675 24.8526 129.675 24.9045C129.675 24.9565 129.675 25.007 129.675 25.059C129.679 25.1187 129.67 25.1784 129.649 25.2344C129.628 25.2904 129.595 25.3413 129.553 25.3838H129.547ZM128.628 28.9607C128.61 28.9702 128.589 28.9726 128.57 28.9674C128.565 28.9659 128.56 28.9631 128.556 28.9594C128.553 28.9556 128.55 28.9509 128.549 28.9458C128.547 28.9408 128.547 28.9354 128.549 28.9303C128.55 28.9253 128.553 28.9206 128.556 28.9168C128.57 28.9062 128.595 28.9102 128.607 28.9088C128.619 28.9075 128.659 28.9421 128.634 28.9607H128.628ZM129.92 26.2983C129.898 26.2983 129.884 26.2877 129.878 26.2597C129.889 26.2597 129.9 26.2424 129.913 26.2397C129.926 26.2371 129.954 26.2491 129.949 26.2744C129.948 26.2809 129.945 26.2871 129.941 26.2923C129.937 26.2974 129.931 26.3013 129.925 26.3036L129.92 26.2983ZM131.994 20.871C132.06 20.8417 132.106 20.871 132.182 20.9056C132.092 20.9495 132.043 20.9442 131.999 20.8763L131.994 20.871ZM135.634 22.3672C135.593 22.4138 135.538 22.4764 135.473 22.4458C135.407 22.4152 135.447 22.3499 135.455 22.2994C135.462 22.2407 135.474 22.1827 135.491 22.1263C135.53 22.0171 135.577 21.912 135.625 21.7935C135.735 21.9892 135.738 22.2434 135.634 22.3672ZM136.942 21.249C136.89 21.1519 136.988 21.1279 137.005 21.072C136.995 21.062 136.987 21.0499 136.982 21.0365C136.977 21.0232 136.975 21.0089 136.976 20.9946C136.976 20.9804 136.98 20.9665 136.987 20.9539C136.994 20.9413 137.003 20.9302 137.015 20.9216C137.061 20.9801 137.015 21.0254 137.005 21.072C137.011 21.1036 137.008 21.1361 136.997 21.1663C136.986 21.1965 136.967 21.2232 136.942 21.2437V21.249ZM133.208 18.986C133.312 19.159 133.41 19.3095 133.262 19.4439C133.236 19.4679 133.212 19.4972 133.186 19.5238C133.161 19.5504 133.225 19.6023 133.168 19.6249C133.156 19.6116 133.146 19.5968 133.138 19.581C133.018 19.5677 133.017 19.6675 133.005 19.7381C132.993 19.8087 132.947 19.8153 132.901 19.8499C132.783 19.9391 132.623 19.9551 132.53 20.0736C132.491 20.1228 132.45 20.1068 132.405 20.1122C132.251 20.1348 132.062 20.0656 131.972 20.2693C131.972 20.2852 131.938 20.2959 131.919 20.2985C131.683 20.3296 131.449 20.374 131.219 20.4317C130.995 20.4649 130.765 20.4423 130.541 20.4876C130.456 20.5049 130.381 20.4689 130.382 20.3744C130.377 20.2153 130.391 20.0561 130.425 19.9005C130.524 19.5451 130.346 19.2895 130.229 18.9873L129.773 19.0965C129.824 19.1594 129.859 19.2333 129.877 19.3123C129.894 19.3913 129.893 19.4733 129.873 19.5517C129.861 19.601 129.862 19.6523 129.876 19.701C129.89 19.7497 129.916 19.794 129.952 19.83C130.086 19.9755 130.191 20.1448 130.262 20.3292C130.297 20.405 130.37 20.4623 130.326 20.5635L130.184 20.6021C130.221 20.6155 130.253 20.6384 130.278 20.6686C130.303 20.6988 130.32 20.7351 130.326 20.7738C130.339 20.8174 130.368 20.8549 130.406 20.8794C130.445 20.9038 130.491 20.9136 130.536 20.9069C130.748 20.9069 130.96 20.9069 131.169 20.9269C131.285 20.9505 131.405 20.9422 131.516 20.9029C131.53 20.8946 131.546 20.8912 131.562 20.8934C131.578 20.8956 131.593 20.9032 131.604 20.9149C131.627 20.9389 131.604 20.9615 131.604 20.9868C131.548 21.1732 131.442 21.341 131.299 21.4727C131.015 21.7309 130.787 22.0531 130.432 22.2315C130.289 22.3078 130.14 22.3698 129.985 22.4165C129.711 22.4978 129.451 22.6208 129.214 22.7813C129.162 22.8198 129.104 22.8499 129.043 22.8704C128.787 22.9423 128.623 23.1367 128.439 23.3151C128.45 23.3537 128.468 23.3736 128.5 23.3337C128.532 23.2938 128.538 23.2592 128.579 23.3111C128.62 23.363 128.562 23.367 128.544 23.3949C128.502 23.4628 128.411 23.4402 128.367 23.5028C128.44 23.584 128.352 23.6359 128.328 23.6945C128.328 23.7171 128.422 23.6945 128.356 23.7477C128.335 23.7633 128.312 23.7755 128.287 23.7837C128.275 23.9075 128.205 24.0326 128.311 24.1497C128.339 24.1817 128.322 24.2176 128.302 24.2536C128.208 24.4224 128.134 24.601 128.08 24.7861C128.035 24.9325 127.875 24.9631 127.749 25.0177C127.704 25.0381 127.655 25.0463 127.605 25.0417C127.293 25.0004 127.022 25.1748 126.725 25.2094C126.658 25.2187 126.658 25.2706 126.657 25.3319C126.664 25.4586 126.641 25.5853 126.587 25.7006C126.561 25.7528 126.518 25.7945 126.464 25.8187C126.411 25.8429 126.351 25.8482 126.294 25.8337C126.24 25.8282 126.186 25.826 126.133 25.8271C126.051 25.8271 125.973 25.8138 125.953 25.9469C125.94 25.9943 125.915 26.0375 125.88 26.0725C125.845 26.1075 125.802 26.133 125.755 26.1466C125.444 26.2318 125.158 26.3982 124.821 26.4128C124.601 26.4278 124.38 26.3875 124.18 26.2957C124.009 26.2218 123.83 26.1708 123.646 26.1439C123.574 26.1312 123.506 26.0968 123.454 26.0452C123.401 25.9936 123.365 25.9273 123.351 25.855C123.351 25.8404 123.334 25.8191 123.339 25.8111C123.501 25.5861 123.339 25.3705 123.258 25.2041C123.111 24.8952 123.139 24.605 123.197 24.2988C123.207 24.2632 123.207 24.2253 123.197 24.1897C123.119 23.9993 123.121 23.7903 123.045 23.5973C123.009 23.5247 122.993 23.4441 122.999 23.3636C123.004 23.283 123.031 23.2053 123.075 23.138C123.195 22.9636 123.274 22.7466 123.518 22.6801C123.573 22.6628 123.619 22.6261 123.648 22.577C123.677 22.5279 123.687 22.4698 123.676 22.4138C123.676 22.29 123.61 22.1702 123.738 22.0504C123.788 22.0038 123.738 21.8547 123.738 21.7536C123.743 21.4105 123.665 21.0713 123.511 20.7645C123.484 20.6678 123.471 20.5679 123.471 20.4676C123.471 20.4543 123.471 20.4277 123.479 20.4263C123.69 20.3797 123.688 20.1521 123.813 20.027C124.025 19.8233 123.916 19.4772 123.581 19.3947C123.342 19.3361 123.353 19.3294 123.345 19.0938C123.346 19.0317 123.331 18.9703 123.301 18.9158C123.272 18.8612 123.228 18.8152 123.175 18.7823C122.959 18.6639 122.718 18.5986 122.471 18.5919C122.388 18.5944 122.305 18.579 122.227 18.5469C122.15 18.5147 122.081 18.4666 122.024 18.4056C121.952 18.3287 121.865 18.2671 121.769 18.2245C121.672 18.182 121.568 18.1593 121.463 18.158C121.392 18.158 121.321 18.1486 121.284 18.0728C121.126 17.7506 120.94 17.4071 120.946 17.0664C120.946 16.7921 120.897 16.5179 120.938 16.2463C120.938 16.2144 120.926 16.2037 120.91 16.1811C120.876 16.1302 120.86 16.069 120.866 16.0079C120.871 15.9468 120.898 15.8895 120.941 15.8456C120.95 15.8323 120.985 15.8337 120.984 15.807C120.973 15.5182 121.251 15.4476 121.384 15.2745C121.465 15.1954 121.527 15.0995 121.567 14.9937C121.605 14.8512 121.759 14.754 121.727 14.5783C121.727 14.5477 121.803 14.4931 121.851 14.4612C122.07 14.3212 122.297 14.1953 122.532 14.0844C122.702 13.9992 122.881 13.8754 123.126 13.9327C123.228 13.9556 123.334 13.9456 123.43 13.9042C123.526 13.8629 123.606 13.7922 123.66 13.7024C123.713 13.6206 123.789 13.5552 123.878 13.5133C123.966 13.4715 124.065 13.455 124.162 13.4654C124.225 13.4821 124.291 13.4821 124.353 13.4654C124.396 13.4173 124.448 13.3772 124.505 13.3469C124.611 13.2857 124.651 13.2657 124.696 13.2937C124.703 13.2944 124.71 13.2971 124.716 13.3016C124.721 13.3061 124.726 13.3121 124.728 13.319C124.751 13.3403 124.776 13.3696 124.812 13.4108C124.861 13.4786 124.926 13.5337 125 13.5715C125.075 13.6092 125.158 13.6285 125.242 13.6278C125.561 13.6246 125.875 13.7054 126.153 13.8621C126.319 13.971 126.504 14.0473 126.698 14.0871C126.724 14.0901 126.748 14.098 126.771 14.1106C126.793 14.1231 126.813 14.14 126.828 14.1602C126.844 14.1804 126.856 14.2035 126.862 14.2282C126.869 14.2529 126.871 14.2787 126.868 14.3041C126.869 14.3072 126.87 14.3106 126.87 14.3141C126.87 14.3176 126.869 14.321 126.868 14.3241C126.869 14.3449 126.869 14.3658 126.868 14.3866C126.85 14.4604 126.815 14.5292 126.766 14.5874C126.718 14.6456 126.656 14.6917 126.586 14.7221C126.587 14.7321 126.589 14.742 126.593 14.7514C126.625 14.7594 126.647 14.774 126.637 14.8153C126.634 14.8277 126.629 14.8398 126.623 14.8512C126.667 14.9473 126.743 15.0257 126.837 15.0735C126.97 15.1441 127.117 15.22 127.092 15.4183C127.084 15.4835 127.132 15.5275 127.185 15.5594C127.296 15.6229 127.388 15.7148 127.452 15.8257C127.462 15.8545 127.482 15.8783 127.509 15.892C127.537 15.9057 127.568 15.9082 127.597 15.8989C127.66 15.8789 127.731 15.8616 127.731 15.7817C127.731 15.6486 127.828 15.61 127.937 15.6047C128.001 15.5923 128.068 15.6005 128.127 15.6283C128.186 15.6561 128.234 15.7019 128.265 15.7591C128.339 15.9082 128.487 15.9801 128.604 16.0813C128.675 16.1425 128.77 16.1771 128.844 16.241C128.967 16.3462 129.093 16.438 129.279 16.3888C129.327 16.3774 129.377 16.3813 129.422 16.4C129.467 16.4186 129.505 16.4511 129.53 16.4926C129.663 16.663 129.878 16.6177 130.017 16.446C130.201 16.2444 130.328 15.9977 130.385 15.7312C130.258 15.6566 130.118 15.7032 129.985 15.7072C129.913 15.7072 129.877 15.6699 129.834 15.6113C129.791 15.5528 129.733 15.3877 129.581 15.5221C129.541 15.5581 129.447 15.5221 129.411 15.4449C129.405 15.4243 129.395 15.4052 129.38 15.389C129.366 15.3729 129.348 15.3602 129.329 15.3518C129.284 15.3373 129.246 15.3062 129.223 15.2649C129.2 15.2236 129.194 15.1751 129.206 15.1294C129.221 15.0536 129.175 15.0363 129.134 15.0056L129.149 14.9511C129.174 14.967 129.202 15.0043 129.225 14.9511C129.247 14.8978 129.294 14.8179 129.245 14.7913C129.155 14.7434 129.233 14.7035 129.227 14.6582C129.231 14.6564 129.235 14.6536 129.237 14.6501C129.24 14.6466 129.241 14.6425 129.242 14.6382C129.317 14.6382 129.375 14.6981 129.439 14.7035C129.503 14.7088 129.558 14.8006 129.629 14.7221C129.69 14.7434 129.703 14.7154 129.665 14.6755C129.639 14.6459 129.606 14.6238 129.568 14.6113C129.531 14.5989 129.491 14.5967 129.453 14.6049L129.41 14.6183C129.357 14.6303 129.302 14.6222 129.255 14.5956C129.189 14.4692 129.036 14.3946 128.955 14.4625C128.839 14.5597 128.822 14.4732 128.775 14.4199C128.698 14.4984 128.784 14.5943 128.732 14.6688L128.742 14.6808L128.782 14.7327C128.822 14.7594 128.868 14.7833 128.835 14.8446L128.808 14.8579L128.794 14.8645C128.793 14.8799 128.789 14.8949 128.782 14.9085C128.781 14.9124 128.781 14.9165 128.782 14.9204C128.775 14.9252 128.767 14.9278 128.759 14.9278C128.751 14.9278 128.743 14.9252 128.736 14.9204L128.72 14.8738C128.643 14.8525 128.587 14.9431 128.587 14.9617C128.575 15.0349 128.504 15.0642 128.488 15.0323C128.463 14.979 128.355 14.9737 128.395 14.8898C128.402 14.8703 128.405 14.8493 128.403 14.8285C128.401 14.8077 128.394 14.7876 128.383 14.77C128.249 14.7807 128.278 14.7154 128.328 14.6436C128.35 14.6137 128.361 14.5778 128.361 14.541C128.361 14.5043 128.35 14.4684 128.328 14.4385C128.316 14.423 128.309 14.4038 128.309 14.384C128.309 14.3641 128.316 14.3449 128.328 14.3294L128.32 14.2894C128.313 14.2632 128.316 14.2352 128.328 14.2109C128.454 14.0485 128.371 13.9194 128.275 13.7796C128.179 13.6398 128.035 13.5134 128.075 13.3083C128.076 13.3026 128.076 13.2967 128.075 13.291C128.027 13.2817 127.981 13.2684 127.988 13.2085C127.983 13.2039 127.979 13.1983 127.977 13.1921C127.974 13.1859 127.973 13.1792 127.973 13.1726C127.952 13.1166 127.915 13.114 127.873 13.1486C127.853 13.1662 127.838 13.1891 127.83 13.2147C127.822 13.2404 127.821 13.2677 127.828 13.2937C127.871 13.5605 127.98 13.8125 128.144 14.0272C128.156 14.0419 128.164 14.0588 128.169 14.0769C128.173 14.0951 128.174 14.1139 128.171 14.1324C128.208 14.171 128.233 14.2216 128.18 14.2535C128.127 14.2855 128.131 14.2029 128.105 14.1776C128.101 14.1734 128.097 14.1685 128.093 14.163H128.065C128.013 14.163 127.996 14.1856 127.983 14.2349C127.977 14.2702 127.963 14.3037 127.941 14.3323C127.92 14.3609 127.891 14.3839 127.859 14.3991C127.826 14.4143 127.791 14.4214 127.755 14.4197C127.719 14.418 127.684 14.4075 127.653 14.3893C127.648 14.3827 127.645 14.3749 127.644 14.3667C127.633 14.3986 127.599 14.4026 127.575 14.4186C127.519 14.4532 127.529 14.6023 127.452 14.5517C127.351 14.4732 127.272 14.3694 127.224 14.2508C127.197 14.1883 127.294 14.1989 127.326 14.2229C127.426 14.2782 127.532 14.3228 127.641 14.356C127.64 14.3499 127.64 14.3435 127.641 14.3374C127.775 14.2415 127.775 14.1204 127.712 13.9806C127.649 13.8408 127.549 13.7543 127.496 13.6225C127.437 13.5015 127.406 13.3685 127.405 13.2338C127.412 13.1153 127.35 13.0527 127.225 13.0647C127.156 13.0727 127.085 13.0647 127.016 13.0714C126.975 13.0745 126.935 13.068 126.898 13.0525C126.86 13.037 126.827 13.0129 126.801 12.9822C126.682 12.8584 126.639 12.8597 126.526 12.9822C126.495 13.0161 126.456 13.0417 126.412 13.0566C126.369 13.0715 126.322 13.0752 126.277 13.0674C126.158 13.0562 126.038 13.0707 125.926 13.11C125.874 13.1246 125.827 13.1548 125.792 13.1965C125.775 13.2185 125.756 13.239 125.735 13.2578C125.735 13.2644 125.723 13.2697 125.714 13.2724C125.625 13.3445 125.518 13.389 125.404 13.4003C125.29 13.4117 125.176 13.3894 125.075 13.3363C125.007 13.3022 124.933 13.2839 124.857 13.2831C124.761 13.2764 124.684 13.2511 124.704 13.1286C124.717 13.0488 124.665 13.0155 124.607 12.9809C124.521 12.9316 124.515 12.8717 124.56 12.7785C124.623 12.613 124.747 12.4772 124.905 12.3978C125.012 12.3485 125.073 12.2341 125.151 12.1449C125.284 11.9958 125.368 11.9771 125.536 12.0823C125.678 12.1715 125.803 12.2767 125.946 12.3712C125.963 12.3864 125.982 12.3981 126.004 12.4057C126.025 12.4133 126.048 12.4165 126.071 12.4153C126.093 12.4141 126.116 12.4083 126.136 12.3985C126.157 12.3886 126.175 12.3748 126.19 12.3579C126.405 12.1755 126.431 12.081 126.323 11.8134C126.299 11.7495 126.269 11.6803 126.371 11.647C126.446 11.6716 126.515 11.712 126.573 11.7655C126.649 11.8533 126.732 11.8214 126.757 11.6949C126.812 11.7587 126.889 11.8003 126.973 11.8118C127.057 11.8233 127.142 11.804 127.213 11.7575C127.222 11.7575 127.233 11.7402 127.24 11.7428C127.551 11.8507 127.856 11.5072 128.173 11.7322C128.184 11.7379 128.196 11.7411 128.208 11.7418C128.221 11.7425 128.233 11.7406 128.244 11.7362C128.255 11.7318 128.266 11.725 128.274 11.7162C128.283 11.7075 128.289 11.6971 128.294 11.6856C128.325 11.6259 128.352 11.5635 128.372 11.4992C128.406 11.3954 128.467 11.2942 128.612 11.3581C128.632 11.3448 128.654 11.3368 128.678 11.3349C128.701 11.333 128.724 11.3374 128.746 11.3475C128.74 11.3666 128.729 11.3837 128.714 11.3968C128.699 11.41 128.68 11.4187 128.66 11.422C128.66 11.4753 128.683 11.5325 128.592 11.5272C128.58 11.5272 128.472 11.5458 128.576 11.5937L128.623 11.6124C128.643 11.605 128.665 11.602 128.687 11.6033C128.708 11.6047 128.729 11.6105 128.748 11.6204L128.863 11.5991C128.887 11.4659 128.856 11.3328 128.927 11.2077C128.948 11.1704 128.927 11.1358 128.872 11.1491C128.818 11.1624 128.739 11.1691 128.666 11.1757C128.566 11.1851 128.48 11.1691 128.45 11.0559C128.45 11.0031 128.463 10.9511 128.488 10.9046C128.513 10.8581 128.549 10.8186 128.594 10.7897C128.593 10.785 128.594 10.7802 128.596 10.7761C128.599 10.772 128.603 10.7688 128.607 10.7671C128.651 10.7085 128.679 10.6339 128.771 10.6339C129.155 10.6583 129.538 10.5816 129.882 10.4116C129.921 10.393 129.981 10.385 129.97 10.3158C129.97 10.2852 130.002 10.2745 130.009 10.2825C130.117 10.4036 130.234 10.2213 130.328 10.2825C130.446 10.3677 130.576 10.2639 130.677 10.3198C130.779 10.3757 130.923 10.3464 130.969 10.4436C131.103 10.7178 131.419 10.7671 131.594 10.9867C131.642 11.0479 131.692 11.1025 131.652 11.1864C131.519 11.2623 131.416 11.1598 131.303 11.1185C131.281 11.0706 131.233 11.0613 131.195 11.0386C131.179 11.0116 131.158 10.9881 131.133 10.9696C131.108 10.951 131.08 10.9378 131.049 10.9308C131.057 10.9765 131.081 11.0176 131.119 11.0453L131.172 11.0945C131.211 11.1318 131.181 11.1731 131.18 11.213C131.18 11.2799 131.206 11.3441 131.253 11.3918C131.3 11.4394 131.364 11.4666 131.431 11.4673C131.415 11.4455 131.397 11.4246 131.379 11.4047C131.351 11.3794 131.307 11.3501 131.335 11.3155C131.381 11.2583 131.401 11.3328 131.432 11.3515C131.463 11.3701 131.483 11.3914 131.51 11.4087C131.536 11.426 131.595 11.4327 131.588 11.4087C131.535 11.2197 131.7 11.2756 131.774 11.2383C131.812 11.2543 131.83 11.3142 131.886 11.2942C131.859 11.1989 131.847 11.1003 131.848 11.0013C131.982 11.028 131.982 11.028 131.944 11.1478C131.932 11.1917 131.97 11.213 131.998 11.233C132.014 11.2468 132.034 11.2564 132.055 11.2609C132.065 11.2579 132.074 11.2534 132.083 11.2476C132.087 11.2443 132.091 11.2402 132.094 11.2356C132.116 11.1957 132.136 11.1624 132.188 11.1678C132.279 11.1678 132.366 11.0173 132.463 11.1678C132.497 11.2197 132.763 11.1411 132.781 11.0826L132.647 10.996C132.627 10.9814 132.613 10.9681 132.647 10.9654C132.658 10.9647 132.669 10.9647 132.679 10.9654L132.779 11.0519C132.845 11.0481 132.91 11.0623 132.967 11.0932C133.059 11.1657 133.158 11.2278 133.264 11.2782C133.272 11.1877 133.194 11.1811 133.161 11.1385L133.064 11.0493C133.019 10.9472 132.987 10.8398 132.969 10.7298C132.95 10.6433 132.986 10.6512 133.041 10.6619C133.144 10.582 133.21 10.5967 133.226 10.7351C133.233 10.7416 133.241 10.7474 133.249 10.7524C133.3 10.6512 133.242 10.5181 133.346 10.4343C133.336 10.3996 133.308 10.3584 133.317 10.3291C133.362 10.196 133.432 10.0522 133.245 9.94304C133.434 10.0109 133.645 9.97365 133.762 10.1627C133.81 10.2672 133.873 10.3641 133.949 10.4502C133.972 10.373 133.932 10.3344 133.924 10.2878C133.953 10.2199 134.012 10.2226 134.072 10.2399C134.072 10.2186 134.072 10.2079 134.072 10.1986C134.063 10.1454 133.949 10.1307 133.991 10.0855C134.055 10.0176 134.097 10.1401 134.164 10.1414L134.211 10.1214C134.176 9.95901 134 9.9204 133.923 9.79394L133.896 9.75933C133.821 9.7367 133.875 9.6475 133.82 9.61556C133.765 9.58361 133.737 9.57296 133.722 9.50507C133.785 9.5277 133.836 9.54367 133.865 9.59825C133.897 9.61289 133.935 9.62221 133.941 9.66481C134.147 9.80749 134.34 9.96737 134.519 10.1427C135.015 10.5555 135.468 11.0185 135.869 11.5245C136.622 12.4628 137.214 13.5196 137.62 14.6515C137.635 14.6915 137.652 14.7314 137.668 14.7713C137.701 14.8885 137.792 15.0003 137.703 15.1308C137.846 15.4973 137.963 15.8737 138.052 16.257C138.205 16.8965 138.266 17.5546 138.232 18.2112C138.222 18.4016 138.219 18.6106 138.114 18.773C138.029 18.9172 137.974 19.077 137.952 19.2429C137.919 19.3958 137.921 19.5543 137.959 19.7062C138.032 20.078 137.994 20.4629 137.851 20.8137C137.815 20.9136 137.772 21.0121 137.732 21.1119C137.731 21.1442 137.723 21.1759 137.708 21.2046C137.693 21.2334 137.672 21.2586 137.647 21.2783C137.645 21.2154 137.661 21.1533 137.692 21.0986C137.649 21.0369 137.631 20.9615 137.64 20.8869C137.64 20.8284 137.64 20.7698 137.557 20.7605L137.523 20.7472L137.481 20.8643C137.462 21.007 137.425 21.1469 137.372 21.281L137.349 21.4434C137.363 21.5566 137.352 21.6712 137.319 21.7802C137.351 21.8053 137.375 21.8401 137.386 21.8796C137.398 21.9191 137.397 21.9612 137.383 21.9998C137.336 22.218 137.273 22.4324 137.195 22.6415C137.103 22.3499 137.268 22.0837 137.269 21.8041C137.247 21.736 137.24 21.6637 137.248 21.5925C137.258 21.4942 137.285 21.3983 137.327 21.3089C137.309 21.1998 137.392 21.1119 137.391 21.0054C137.418 20.713 137.43 20.4192 137.424 20.1255L137.375 20.1641L137.364 20.1934C137.35 20.2469 137.322 20.2956 137.283 20.3345L137.275 20.3438V20.3571H137.263C137.164 20.3957 137.193 20.3252 137.199 20.2799C137.212 20.1761 137.228 20.0709 137.243 19.9671C137.199 19.7008 137.061 19.4625 137.044 19.191L136.984 19.2629C136.976 19.3813 136.868 19.4173 136.79 19.4359C136.746 19.4406 136.704 19.4617 136.675 19.4952C136.645 19.5287 136.628 19.5721 136.629 19.617C136.627 19.6642 136.614 19.7103 136.591 19.7515C136.568 19.7927 136.535 19.8278 136.496 19.8539C136.421 19.9085 136.4 20.0296 136.336 20.1042C136.178 20.2866 136.083 20.5222 135.862 20.6526C135.809 20.6833 135.801 20.7645 135.803 20.8297C135.813 21.0959 135.693 21.3316 135.611 21.5712C135.557 21.7349 135.402 21.8654 135.288 22.0078C135.283 22.0173 135.274 22.0248 135.264 22.0294C135.254 22.0341 135.242 22.0356 135.231 22.0339C135.22 22.0322 135.21 22.0273 135.201 22.0199C135.193 22.0124 135.187 22.0026 135.184 21.9918C135.165 21.9591 135.156 21.9218 135.158 21.884C135.206 21.5925 135.111 21.3089 135.111 21.0187C135.111 20.7525 135.028 20.5009 135.05 20.236C135.066 20.0296 135.074 19.8233 135.086 19.6156H135.008C134.808 19.7381 134.791 19.7275 134.651 19.3867L134.77 19.3454L134.723 19.2935C134.57 19.1721 134.456 19.0081 134.396 18.8222C134.379 18.773 134.368 18.7397 134.316 18.7517C134.183 18.785 134.049 18.7344 133.916 18.7397C133.928 18.7863 133.056 18.7237 133.206 18.978L133.208 18.986ZM126.198 13.315C126.205 13.3152 126.211 13.317 126.217 13.3203C126.223 13.3236 126.228 13.3282 126.232 13.3338C126.236 13.3393 126.238 13.3457 126.239 13.3524C126.24 13.3591 126.239 13.3659 126.237 13.3722C126.227 13.4108 126.198 13.4188 126.163 13.4148C126.129 13.4108 126.106 13.3709 126.117 13.339C126.127 13.307 126.167 13.315 126.198 13.315ZM127.033 13.5293C127.166 13.5426 127.118 13.5999 127.116 13.6518C127.073 13.709 127.037 13.7556 127.004 13.8036C126.984 13.8281 126.955 13.8447 126.924 13.8503C126.893 13.856 126.86 13.8502 126.833 13.8342C126.77 13.7982 126.822 13.7423 126.864 13.7077C126.926 13.6558 126.87 13.5133 127.033 13.5293ZM127.253 13.2897C127.27 13.2724 127.298 13.2671 127.305 13.2897C127.318 13.3363 127.289 13.3696 127.249 13.3922C127.209 13.4148 127.178 13.4947 127.116 13.4907C127.082 13.4907 127.089 13.4428 127.094 13.4108C127.108 13.315 127.169 13.287 127.253 13.2897ZM128.796 15.4449L128.851 15.4702C128.88 15.4809 128.931 15.4849 128.927 15.5155C128.92 15.5714 128.872 15.5461 128.839 15.5355C128.806 15.5248 128.771 15.5048 128.736 15.4889L128.688 15.4396C128.643 15.4261 128.603 15.3992 128.574 15.3624C128.554 15.3464 128.552 15.3225 128.574 15.3145C128.595 15.3065 128.64 15.3145 128.655 15.3557C128.7 15.3797 128.767 15.3797 128.796 15.4449ZM128.898 15.1388C128.898 15.1294 128.922 15.1254 128.936 15.1175C128.947 15.1334 128.963 15.1467 128.962 15.1587C128.96 15.1707 128.932 15.1867 128.914 15.176C128.895 15.1654 128.894 15.1428 128.898 15.1334V15.1388ZM129.801 15.8989C129.85 15.8283 129.934 15.8523 130 15.8683C130.03 15.8763 130.092 15.8776 130.053 15.9322C130.014 15.9867 129.929 15.9694 129.869 15.9801C129.827 15.9561 129.783 15.9189 129.801 15.8936V15.8989ZM136.793 23.0329C136.776 22.9836 136.758 22.941 136.8 22.9264C136.841 22.9117 136.83 22.9517 136.825 22.9756C136.816 22.9953 136.805 23.0144 136.793 23.0329ZM136.996 23.3523C136.996 23.3643 136.981 23.3763 136.973 23.3883C136.97 23.3981 136.965 23.4075 136.96 23.4162C136.876 23.5973 136.833 23.797 136.693 23.9594L136.737 23.7104V23.6372C136.696 23.5946 136.648 23.5494 136.693 23.4868C136.813 23.3177 136.796 23.1007 136.89 22.9237C136.921 22.7685 136.916 22.6086 136.878 22.4551C136.862 22.3699 136.829 22.2647 136.991 22.2741C137.044 22.2741 137.055 22.286 137.052 22.3326C137.047 22.4633 137.068 22.5938 137.115 22.716C137.16 22.8491 137.08 22.9743 137.06 23.1021C137.173 23.2245 137.056 23.2805 136.996 23.3523ZM137.557 22.081C137.536 22.0744 137.521 22.0557 137.539 22.0358C137.556 22.0158 137.567 22.0278 137.579 22.0358C137.591 22.0438 137.593 22.0571 137.604 22.0757C137.589 22.0798 137.573 22.0816 137.557 22.081Z" fill="white"/>
  <path d="M131.909 14.7964C131.752 14.642 131.657 14.4357 131.476 14.3039C131.416 14.1934 131.53 14.2373 131.561 14.2147C131.641 14.1521 131.636 13.9964 131.793 14.015C131.628 13.9611 131.452 13.951 131.282 13.9857C131.241 13.9857 131.236 14.0257 131.226 14.0549C131.216 14.1881 131.14 14.2147 131.025 14.1881C131.025 14.1614 131.034 14.1228 131.025 14.1122C130.914 14.027 130.986 13.9924 131.074 13.9671C131.018 13.9019 130.911 13.9218 130.894 13.8486C130.862 13.7155 130.798 13.7661 130.722 13.798C130.646 13.83 130.575 13.9311 130.505 13.9578C130.345 14.0137 130.307 14.1907 130.163 14.2506C130.134 14.2626 130.156 14.2972 130.163 14.3225C130.183 14.4245 130.242 14.5148 130.327 14.5742C130.413 14.6336 130.518 14.6575 130.621 14.6407C130.702 14.6107 130.789 14.6023 130.875 14.6163C130.96 14.6303 131.04 14.6663 131.107 14.7206C131.271 14.8841 131.472 15.0052 131.693 15.0733C131.736 15.0898 131.783 15.0939 131.828 15.0849C131.873 15.0759 131.915 15.0544 131.948 15.0227C131.973 14.9876 131.983 14.944 131.975 14.9016C131.968 14.8592 131.944 14.8213 131.909 14.7964Z" fill="white"/>
  <path d="M129.188 18.3801L120.594 36L134.63 18.5917L129.188 18.3801Z" fill="#FF0000"/>
  </g>
  <defs>
  <clipPath id="clip0_46_43">
  <rect width="167" height="36" fill="white"/>
  </clipPath>
  </defs>
  </symbol>


</svg>
